<?xml version="1.0" encoding="UTF-8"?>
<svg version="1.1" xmlns="http://www.w3.org/2000/svg" width="200" height="161">
<path d="M0 0 C1.46904283 1.11097897 2.92894822 2.23425666 4.375 3.375 C5.9528125 4.5196875 5.9528125 4.5196875 7.5625 5.6875 C15.14196186 12.93009689 21.29417184 22.45268889 21.9765625 33.08203125 C22.01502986 35.11683892 22.02198235 37.15244748 22 39.1875 C21.990896 40.25121826 21.98179199 41.31493652 21.97241211 42.41088867 C21.73062464 50.64113224 20.37768954 56.68052956 15.375 63.375 C14.73304688 64.29925781 14.09109375 65.22351563 13.4296875 66.17578125 C7.81208074 73.66937846 0.92934545 78.99238292 -6.625 84.375 C-6.26148438 85.0047876 -5.89796875 85.6345752 -5.5234375 86.28344727 C-3.87500012 89.15949498 -2.24993625 92.04811449 -0.625 94.9375 C-0.05265625 95.92814453 0.5196875 96.91878906 1.109375 97.93945312 C6.39056154 107.401579 6.39056154 107.401579 5.375 113.375 C3.4375 115.5 3.4375 115.5 0.375 116.375 C-5.79135909 114.99771067 -11.67662274 112.15401391 -17.421875 109.58203125 C-19.05586044 108.86233694 -20.6899789 108.14294457 -22.32421875 107.42382812 C-24.86251699 106.3016409 -27.39945274 105.17659401 -29.93408203 104.04614258 C-32.40568587 102.94582962 -34.88208186 101.8569618 -37.359375 100.76953125 C-38.11466492 100.42896194 -38.86995483 100.08839264 -39.64813232 99.73750305 C-43.40099613 98.09859384 -46.44144212 96.7882636 -50.625 97.375 C-52.3390626 98.63413966 -52.3390626 98.63413966 -53.75 100.4375 C-64.87057713 112.30104673 -81.7030159 117.98878406 -97.625 119.375 C-99.08796981 119.3482806 -100.55065715 119.29417596 -102.01171875 119.21484375 C-117.32950865 118.59779528 -129.3907932 124.38161115 -143.0065918 130.73510742 C-143.79370544 131.0998819 -144.58081909 131.46465637 -145.39178467 131.84048462 C-146.88038353 132.53526849 -148.36367036 133.24159184 -149.84039307 133.96127319 C-153.93082516 135.88766884 -156.99892804 136.87445202 -161.625 136.375 C-163.5 135.3125 -163.5 135.3125 -164.625 133.375 C-165.57909684 126.46229838 -162.69189051 122.19973712 -159.125 116.4375 C-158.60035156 115.56287109 -158.07570312 114.68824219 -157.53515625 113.78710938 C-156.24520127 111.64109336 -154.94179941 109.50461103 -153.625 107.375 C-154.31851563 107.15328125 -155.01203125 106.9315625 -155.7265625 106.703125 C-165.15480467 102.38290622 -173.35494672 92.78337369 -177.50390625 83.4921875 C-180.52866313 74.05912793 -180.79693814 60.73785932 -176.6875 51.625 C-175.296875 49.46484375 -175.296875 49.46484375 -173.625 47.375 C-172.97015625 46.53066406 -172.3153125 45.68632813 -171.640625 44.81640625 C-162.07946122 33.4074289 -149.41477745 25.97401111 -134.75 23.1875 C-128.82205474 21.73151344 -126.7870879 18.16904101 -123.57421875 13.22265625 C-112.37836183 -3.13361568 -91.98960576 -9.52162697 -73.625 -13.625 C-72.85430176 -13.801521 -72.08360352 -13.97804199 -71.28955078 -14.15991211 C-47.19860179 -18.36490183 -20.2981891 -13.90577432 0 0 Z M-137.5 65.5625 C-138.87677597 67.38424255 -138.87677597 67.38424255 -138.4375 69.9375 C-137.77872967 72.51941272 -137.77872967 72.51941272 -135.625 74.375 C-132.32785207 74.04528521 -131.0023161 73.7523161 -128.625 71.375 C-128.29166667 68.875 -128.29166667 68.875 -128.625 66.375 C-130.44703581 64.14533253 -130.44703581 64.14533253 -133.0625 64.0625 C-135.62870015 64.18957344 -135.62870015 64.18957344 -137.5 65.5625 Z M-116.5 65.5625 C-117.87677597 67.38424255 -117.87677597 67.38424255 -117.4375 69.9375 C-116.77872967 72.51941272 -116.77872967 72.51941272 -114.625 74.375 C-111.32785207 74.04528521 -110.0023161 73.7523161 -107.625 71.375 C-107.29166667 68.875 -107.29166667 68.875 -107.625 66.375 C-109.44703581 64.14533253 -109.44703581 64.14533253 -112.0625 64.0625 C-114.62870015 64.18957344 -114.62870015 64.18957344 -116.5 65.5625 Z M-95.5 65.5625 C-96.87677597 67.38424255 -96.87677597 67.38424255 -96.4375 69.9375 C-95.77872967 72.51941272 -95.77872967 72.51941272 -93.625 74.375 C-90.52573181 74.05301034 -90.52573181 74.05301034 -87.625 73.375 C-86.94826553 69.97179066 -86.94826553 69.97179066 -86.625 66.375 C-88.44703581 64.14533253 -88.44703581 64.14533253 -91.0625 64.0625 C-93.62870015 64.18957344 -93.62870015 64.18957344 -95.5 65.5625 Z " fill="#4C73A5" transform="translate(178.625,19.625)"/>
<path d="M0 0 C1.22396484 -0.00322266 2.44792969 -0.00644531 3.70898438 -0.00976562 C24.74769975 0.11339875 43.56180473 6.30447211 59.16796875 20.8046875 C66.60072309 29.01781708 68.98909226 37.61198959 68.91015625 48.4375 C67.57758684 59.3623666 60.55528568 69.5190815 52.01953125 76.20703125 C47.33911878 79.57041389 42.49908994 82.5616359 37.4375 85.3125 C37.92467067 90.94596448 40.16361231 94.81926055 43 99.5625 C47.4375 107.07729514 47.4375 107.07729514 47.4375 109.3125 C40.06165952 107.00354124 32.95673405 104.15064821 25.85058594 101.12402344 C23.9176084 100.30406206 21.97853501 99.49976942 20.0390625 98.6953125 C18.80688877 98.17282414 17.57510264 97.64942052 16.34375 97.125 C15.23322266 96.65707031 14.12269531 96.18914062 12.97851562 95.70703125 C10.4375 94.3125 10.4375 94.3125 9.4375 91.3125 C9.7365625 90.61253906 10.035625 89.91257812 10.34375 89.19140625 C13.22370352 81.61095717 12.66603093 71.29039842 10.3046875 63.64453125 C8.86941462 60.68005402 7.31000893 58.01916604 5.4375 55.3125 C5.01597656 54.66410156 4.59445313 54.01570313 4.16015625 53.34765625 C-6.08843403 39.61018417 -25.34458279 33.02244955 -41.36328125 29.73828125 C-45.71340634 29.15932687 -50.05575219 28.95127004 -54.4375 28.75 C-55.75621094 28.68522461 -55.75621094 28.68522461 -57.1015625 28.61914062 C-59.25505797 28.51380661 -61.40876064 28.41272351 -63.5625 28.3125 C-57.66291852 16.16841443 -43.33333688 8.93264696 -31.18359375 4.3828125 C-20.6294713 1.26325527 -11.01975754 -0.14553298 0 0 Z " fill="#9ED5F5" transform="translate(123.5625,13.6875)"/>
<path d="M0 0 C1.46904283 1.11097897 2.92894822 2.23425666 4.375 3.375 C5.9528125 4.5196875 5.9528125 4.5196875 7.5625 5.6875 C15.14196186 12.93009689 21.29417184 22.45268889 21.9765625 33.08203125 C22.01502986 35.11683892 22.02198235 37.15244748 22 39.1875 C21.990896 40.25121826 21.98179199 41.31493652 21.97241211 42.41088867 C21.73062464 50.64113224 20.37768954 56.68052956 15.375 63.375 C14.73304688 64.29925781 14.09109375 65.22351563 13.4296875 66.17578125 C7.81208074 73.66937846 0.92934545 78.99238292 -6.625 84.375 C-6.26148438 85.0047876 -5.89796875 85.6345752 -5.5234375 86.28344727 C-3.87500012 89.15949498 -2.24993625 92.04811449 -0.625 94.9375 C-0.05265625 95.92814453 0.5196875 96.91878906 1.109375 97.93945312 C6.39056154 107.401579 6.39056154 107.401579 5.375 113.375 C3.4375 115.5 3.4375 115.5 0.375 116.375 C-5.79135909 114.99771067 -11.67662274 112.15401391 -17.421875 109.58203125 C-19.05586044 108.86233694 -20.6899789 108.14294457 -22.32421875 107.42382812 C-24.86251699 106.3016409 -27.39945274 105.17659401 -29.93408203 104.04614258 C-32.40568587 102.94582962 -34.88208186 101.8569618 -37.359375 100.76953125 C-38.11466492 100.42896194 -38.86995483 100.08839264 -39.64813232 99.73750305 C-43.40099613 98.09859384 -46.44144212 96.7882636 -50.625 97.375 C-52.3390626 98.63413966 -52.3390626 98.63413966 -53.75 100.4375 C-64.87057713 112.30104673 -81.7030159 117.98878406 -97.625 119.375 C-99.08796981 119.3482806 -100.55065715 119.29417596 -102.01171875 119.21484375 C-117.32950865 118.59779528 -129.3907932 124.38161115 -143.0065918 130.73510742 C-143.79370544 131.0998819 -144.58081909 131.46465637 -145.39178467 131.84048462 C-146.88038353 132.53526849 -148.36367036 133.24159184 -149.84039307 133.96127319 C-153.93082516 135.88766884 -156.99892804 136.87445202 -161.625 136.375 C-163.5 135.3125 -163.5 135.3125 -164.625 133.375 C-165.57909684 126.46229838 -162.69189051 122.19973712 -159.125 116.4375 C-158.60035156 115.56287109 -158.07570312 114.68824219 -157.53515625 113.78710938 C-156.24520127 111.64109336 -154.94179941 109.50461103 -153.625 107.375 C-154.31851563 107.15328125 -155.01203125 106.9315625 -155.7265625 106.703125 C-165.15480467 102.38290622 -173.35494672 92.78337369 -177.50390625 83.4921875 C-180.52866313 74.05912793 -180.79693814 60.73785932 -176.6875 51.625 C-175.296875 49.46484375 -175.296875 49.46484375 -173.625 47.375 C-172.97015625 46.53066406 -172.3153125 45.68632813 -171.640625 44.81640625 C-162.07946122 33.4074289 -149.41477745 25.97401111 -134.75 23.1875 C-128.82205474 21.73151344 -126.7870879 18.16904101 -123.57421875 13.22265625 C-112.37836183 -3.13361568 -91.98960576 -9.52162697 -73.625 -13.625 C-72.85430176 -13.801521 -72.08360352 -13.97804199 -71.28955078 -14.15991211 C-47.19860179 -18.36490183 -20.2981891 -13.90577432 0 0 Z M-118.625 20.375 C-118.625 21.035 -118.625 21.695 -118.625 22.375 C-116.86349609 22.41367187 -116.86349609 22.41367187 -115.06640625 22.453125 C-94.61287743 23.09503928 -76.59350913 27.4083018 -59.625 39.375 C-58.96628906 39.83519531 -58.30757812 40.29539063 -57.62890625 40.76953125 C-51.22131854 45.7214977 -45.93152201 53.61669871 -43.625 61.375 C-43.34419824 64.50462279 -43.34583346 67.60973542 -43.375 70.75 C-43.36339844 71.9875 -43.36339844 71.9875 -43.3515625 73.25 C-43.36771705 78.33868373 -43.98777122 82.55427081 -45.625 87.375 C-37.94644133 91.36202811 -30.09740183 94.8328208 -22.125 98.1875 C-20.94679688 98.68958984 -19.76859375 99.19167969 -18.5546875 99.70898438 C-17.43320313 100.18271484 -16.31171875 100.65644531 -15.15625 101.14453125 C-13.63354492 101.78805542 -13.63354492 101.78805542 -12.08007812 102.44458008 C-9.75087803 103.49312744 -9.75087803 103.49312744 -7.625 103.375 C-9.21741053 97.8563286 -11.91291002 93.29848831 -14.96679688 88.49804688 C-16.60467512 85.78410344 -17.61685936 83.81709943 -17.67578125 80.6171875 C-16.23676166 77.54656577 -14.68105318 76.96743556 -11.625 75.5625 C-2.2761093 70.8092378 4.21168324 64.47750371 9.375 55.375 C9.78878906 54.68921875 10.20257813 54.0034375 10.62890625 53.296875 C14.45945605 46.08956875 14.48616658 37.9216497 12.90234375 30.015625 C12.2257475 27.98988772 11.41235794 26.24145841 10.375 24.375 C9.77171875 23.28638672 9.77171875 23.28638672 9.15625 22.17578125 C2.01588676 10.49335361 -8.43742948 4.7053614 -20.625 -0.625 C-21.23714355 -0.89747559 -21.84928711 -1.16995117 -22.47998047 -1.45068359 C-54.42443584 -14.62271954 -95.7499601 -4.90793884 -118.625 20.375 Z M-164.3671875 49.62890625 C-170.10080234 56.6024897 -171.43617229 62.78268575 -171.125 71.81640625 C-169.59732294 82.68917033 -162.86549154 90.56457954 -154.625 97.375 C-151.05420915 99.8894507 -147.41177191 102.20084578 -143.625 104.375 C-144.38130549 110.13372613 -147.38192932 114.5476652 -150.2265625 119.51171875 C-150.68804687 120.45660156 -151.14953125 121.40148437 -151.625 122.375 C-151.13 123.365 -151.13 123.365 -150.625 124.375 C-149.96491943 124.08778076 -149.30483887 123.80056152 -148.62475586 123.50463867 C-145.60408939 122.19039587 -142.58329574 120.87644564 -139.5625 119.5625 C-138.00499023 118.88477539 -138.00499023 118.88477539 -136.41601562 118.19335938 C-134.3848142 117.30994796 -132.3514778 116.43142736 -130.31591797 115.55810547 C-128.20373596 114.62945059 -126.12695719 113.62022321 -124.06640625 112.58203125 C-119.24106207 110.88960066 -114.70209707 110.93470108 -109.625 110.875 C-90.29391761 110.27895448 -72.89651222 106.53252452 -58.61328125 92.609375 C-52.40850569 85.63662132 -49.11048351 78.67501681 -49.3125 69.28125 C-50.42479291 58.93692594 -56.4903088 50.83689944 -64.1875 44.25 C-69.87115326 39.89310315 -76.00880473 37.0432254 -82.625 34.375 C-83.40746094 34.05660156 -84.18992187 33.73820312 -84.99609375 33.41015625 C-111.62020053 23.59099026 -144.75174092 28.55516845 -164.3671875 49.62890625 Z " fill="#4E5054" transform="translate(178.625,19.625)"/>
<path d="M0 0 C3.72262577 0.09493035 4.16140372 0.47716575 7.1875 3.125 C9.36567423 6.80066901 9.98562987 8.33198845 9.1875 12.5 C7.75 15.375 7.75 15.375 5.1875 17.5 C0.86627742 18.41181761 -2.58043326 18.30084338 -6.3125 15.875 C-8.17171047 12.93125008 -8.7413308 10.98729073 -8.8125 7.5 C-6.62618993 2.91915986 -5.1706116 0.678113 0 0 Z M-3.6875 5.6875 C-5.06427597 7.50924255 -5.06427597 7.50924255 -4.625 10.0625 C-3.96622967 12.64441272 -3.96622967 12.64441272 -1.8125 14.5 C1.48464793 14.17028521 2.8101839 13.8773161 5.1875 11.5 C5.52083333 9 5.52083333 9 5.1875 6.5 C3.36546419 4.27033253 3.36546419 4.27033253 0.75 4.1875 C-1.81620015 4.31457344 -1.81620015 4.31457344 -3.6875 5.6875 Z " fill="#696F76" transform="translate(44.8125,79.5)"/>
<path d="M0 0 C2.875 2.125 2.875 2.125 5 5 C5.4375 8.1875 5.4375 8.1875 5 11 C3 13 3 13 0.8359375 13.1953125 C-0.38222656 13.16050781 -0.38222656 13.16050781 -1.625 13.125 C-2.44226563 13.10695313 -3.25953125 13.08890625 -4.1015625 13.0703125 C-4.72804688 13.04710938 -5.35453125 13.02390625 -6 13 C-6.33 13.66 -6.66 14.32 -7 15 C-9.78229901 11.54320426 -11 9.758007 -11 5.25 C-10 2 -10 2 -8.3125 0.5625 C-5.28079807 -0.17494101 -3.11462684 -0.44494669 0 0 Z M-5.875 3.1875 C-7.25177597 5.00924255 -7.25177597 5.00924255 -6.8125 7.5625 C-6.15372967 10.14441272 -6.15372967 10.14441272 -4 12 C-0.90073181 11.67801034 -0.90073181 11.67801034 2 11 C2.67673447 7.59679066 2.67673447 7.59679066 3 4 C1.17796419 1.77033253 1.17796419 1.77033253 -1.4375 1.6875 C-4.00370015 1.81457344 -4.00370015 1.81457344 -5.875 3.1875 Z " fill="#686D75" transform="translate(89,82)"/>
<path d="M0 0 C2.5 1.5625 2.5 1.5625 5 4 C5.625 7.4375 5.625 7.4375 5 11 C2.5625 13.875 2.5625 13.875 0 16 C-0.33 16.33 -0.66 16.66 -1 17 C-4.9733857 17.54182532 -6.53502269 17.34098336 -9.8125 14.9375 C-12.3525648 11.52655584 -12.75307684 9.19769372 -13 5 C-12.34 5 -11.68 5 -11 5 C-10.649375 6.134375 -10.29875 7.26875 -9.9375 8.4375 C-9.19692595 10.39087466 -9.19692595 10.39087466 -8 12 C-4.8261084 12.83523463 -2.24986634 13 1 13 C1.0272415 11.58344207 1.04650467 10.16672955 1.0625 8.75 C1.07410156 7.96109375 1.08570312 7.1721875 1.09765625 6.359375 C1.00385306 4.09308998 0.63241063 2.1711105 0 0 Z " fill="#444C59" transform="translate(70,81)"/>
<path d="M0 0 C1.99584278 4.11642574 2.42196743 7.44275172 2 12 C0.9375 14 0.9375 14 -1 15 C-4.70600824 14.93382128 -7.06629912 14.8403308 -9.875 12.3125 C-11.28919155 9.40555071 -11.93236324 7.24656433 -12 4 C-8.96957701 -1.00678581 -5.2915416 -0.35276944 0 0 Z M-7.875 5.1875 C-9.25177597 7.00924255 -9.25177597 7.00924255 -8.8125 9.5625 C-8.15372967 12.14441272 -8.15372967 12.14441272 -6 14 C-2.70285207 13.67028521 -1.3773161 13.3773161 1 11 C1.33333333 8.5 1.33333333 8.5 1 6 C-0.82203581 3.77033253 -0.82203581 3.77033253 -3.4375 3.6875 C-6.00370015 3.81457344 -6.00370015 3.81457344 -7.875 5.1875 Z " fill="#7C7E84" transform="translate(70,80)"/>
<path d="M0 0 C4.39495881 0.6894053 6.24156234 2.20335548 9.1875 5.5 C9.95902986 9.82056721 9.71497866 11.69119939 7.3125 15.375 C4.6150772 18.0724228 3.90244458 18.48570111 0.0625 18.5625 C-0.88625 18.541875 -1.835 18.52125 -2.8125 18.5 C-3.1425 17.51 -3.4725 16.52 -3.8125 15.5 C-3.17441406 15.43941406 -2.53632812 15.37882812 -1.87890625 15.31640625 C-1.05261719 15.23261719 -0.22632812 15.14882812 0.625 15.0625 C1.44871094 14.98128906 2.27242187 14.90007812 3.12109375 14.81640625 C5.17412025 14.71069185 5.17412025 14.71069185 6.1875 13.5 C6.57471999 10.01502007 6.58137281 8.12363194 4.6875 5.125 C1.05498926 2.76386802 -1.53093297 3.2145622 -5.8125 3.5 C-3.99740228 1.0798697 -3.02613099 0.53797884 0 0 Z " fill="#3E4857" transform="translate(86.8125,79.5)"/>
<path d="M0 0 C0.66 0 1.32 0 2 0 C4.5142059 8.29892355 3.96065668 17.90515677 0.34375 25.74609375 C-2.68796343 30.83126424 -6.82941664 34.85476973 -11 39 C-11.66 38.67 -12.32 38.34 -13 38 C-12.32904297 37.27296875 -12.32904297 37.27296875 -11.64453125 36.53125 C-2.96790963 26.91111515 1.67366587 19.16535577 1 6 C0.72756589 3.99079847 0.42849573 1.98179275 0 0 Z " fill="#3C4454" transform="translate(127,80)"/>
<path d="M0 0 C0.99 0 1.98 0 3 0 C3.08107583 1.93681161 3.13922475 3.8745934 3.1875 5.8125 C3.22230469 6.89144531 3.25710937 7.97039062 3.29296875 9.08203125 C3 12 3 12 1.8125 13.875 C-0.63255688 15.39262151 -2.33245951 15.29873534 -5.1875 15.1875 C-6.08855469 15.16042969 -6.98960938 15.13335937 -7.91796875 15.10546875 C-8.60503906 15.07066406 -9.29210938 15.03585938 -10 15 C-10 14.67 -10 14.34 -10 14 C-8.1128125 13.87625 -8.1128125 13.87625 -6.1875 13.75 C-3.31802487 13.37925366 -2.25709411 13.21692316 0 11.3125 C1.72509714 7.32321285 1.35125306 4.05375919 0 0 Z " fill="#4C698F" transform="translate(52,83)"/>
<path d="M0 0 C3 1 3 1 4 3 C4.1875 6 4.1875 6 4 9 C2 11 2 11 -1.625 11.125 C-2.73875 11.08375 -3.8525 11.0425 -5 11 C-1.25 9 -1.25 9 1 9 C1.26932521 4.34947128 1.26932521 4.34947128 0 0 Z " fill="#939291" transform="translate(90,84)"/>
<path d="M0 0 C2.5 1.5625 2.5 1.5625 5 4 C5.4375 7.625 5.4375 7.625 5 11 C4.34 11.66 3.68 12.32 3 13 C2.86722656 12.39671875 2.73445313 11.7934375 2.59765625 11.171875 C2.42105469 10.37265625 2.24445313 9.5734375 2.0625 8.75 C1.88847656 7.96109375 1.71445313 7.1721875 1.53515625 6.359375 C1.052444 4.23121297 0.53836822 2.11467158 0 0 Z " fill="#3D4553" transform="translate(70,81)"/>
<path d="M0 0 C1.34771696 2.21976911 2.04398726 3.50147776 1.8125 6.125 C1 8 1 8 -2 10 C-4.6875 9.625 -4.6875 9.625 -7 9 C-3.25 7 -3.25 7 -1 7 C-0.67 4.69 -0.34 2.38 0 0 Z " fill="#4D515A" transform="translate(51,87)"/>
<path d="M0 0 C4.92307692 4.18461538 4.92307692 4.18461538 5.3125 8.3125 C5.209375 9.199375 5.10625 10.08625 5 11 C3 10 3 10 2.1484375 7.71484375 C1.89320312 6.79832031 1.63796875 5.88179688 1.375 4.9375 C1.11460938 4.01839844 0.85421875 3.09929687 0.5859375 2.15234375 C0.39257812 1.44207031 0.19921875 0.73179688 0 0 Z " fill="#3D4351" transform="translate(49,81)"/>
<path d="M0 0 C2.50037734 2.17424117 3.43628586 3.73045798 4 7 C1.69 6.34 -0.62 5.68 -3 5 C-2.505 4.54625 -2.01 4.0925 -1.5 3.625 C0.22609337 2.12364481 0.22609337 2.12364481 0 0 Z " fill="#98BED5" transform="translate(167,116)"/>
<path d="M0 0 C0 3.58912412 -0.66436554 4.10857029 -3 6.6875 C-3.556875 7.31011719 -4.11375 7.93273437 -4.6875 8.57421875 C-5.120625 9.04472656 -5.55375 9.51523438 -6 10 C-6.33 9.34 -6.66 8.68 -7 8 C-4.69 5.36 -2.38 2.72 0 0 Z " fill="#4F6B91" transform="translate(18,66)"/>
</svg>
